<svg width="56" height="36" viewBox="0 0 56 36" fill="none" xmlns="http://www.w3.org/2000/svg">
<path d="M51.4704 2.41732L45.1928 9.36135C45.1203 9.43578 45.025 9.47711 44.926 9.47711C44.8271 9.47711 44.7318 9.43578 44.6592 9.36135L38.107 2.11349C37.603 1.55473 37.0043 1.11145 36.3452 0.80899C35.6861 0.506526 34.9795 0.35083 34.2659 0.35083C33.5523 0.35083 32.8458 0.506526 32.1867 0.80899C31.5276 1.11145 30.9289 1.55473 30.4249 2.11349L23.9472 9.27452C23.9128 9.31376 23.8716 9.34497 23.8262 9.36628C23.7807 9.38759 23.7317 9.39854 23.6823 9.39854C23.6329 9.39854 23.584 9.38759 23.5386 9.36628C23.4931 9.34497 23.4519 9.31376 23.4175 9.27452L17.14 2.33049C16.1195 1.20731 14.7384 0.576785 13.2989 0.576785C11.8593 0.576785 10.4782 1.20731 9.45775 2.33049L1.29694 11.3578C0.822959 11.8821 0.556641 12.5931 0.556641 13.3346C0.556641 14.0761 0.822959 14.7872 1.29694 15.3115C1.77092 15.8358 2.41375 16.1303 3.08406 16.1303C3.75437 16.1303 4.39724 15.8358 4.87122 15.3115L13.032 6.28424C13.0626 6.23762 13.1027 6.19968 13.1491 6.17351C13.1955 6.14735 13.2468 6.13373 13.2989 6.13373C13.3509 6.13373 13.4022 6.14735 13.4486 6.17351C13.495 6.19968 13.5351 6.23762 13.5657 6.28424L19.8432 13.2283C20.862 14.3533 22.2428 14.9852 23.6823 14.9852C25.1219 14.9852 26.5027 14.3533 27.5215 13.2283L33.9991 6.06724C34.0717 5.99281 34.167 5.95148 34.2659 5.95148C34.3649 5.95148 34.4602 5.99281 34.5327 6.06724L41.0849 13.3151C42.1044 14.4404 43.4858 15.0724 44.926 15.0724C46.3662 15.0724 47.7476 14.4404 48.7671 13.3151L55.0447 6.37107C55.5187 5.84677 55.7849 5.13564 55.7849 4.39417C55.7849 3.6527 55.5187 2.94162 55.0447 2.41732C54.5707 1.89302 53.9278 1.59843 53.2575 1.59843C52.5872 1.59843 51.9444 1.89302 51.4704 2.41732V2.41732Z" fill="#E0343B"/>
<path d="M51.4704 22.1417L45.1928 29.0857C45.1203 29.1601 45.025 29.2015 44.926 29.2015C44.8271 29.2015 44.7318 29.1601 44.6592 29.0857L38.107 21.8379C37.603 21.2792 37.0043 20.8358 36.3452 20.5334C35.6861 20.2309 34.9795 20.0752 34.2659 20.0752C33.5523 20.0752 32.8458 20.2309 32.1867 20.5334C31.5276 20.8358 30.9289 21.2792 30.4249 21.8379L23.9472 28.9989C23.9128 29.0382 23.8716 29.0693 23.8262 29.0906C23.7807 29.112 23.7317 29.123 23.6823 29.123C23.6329 29.123 23.584 29.112 23.5386 29.0906C23.4931 29.0693 23.4519 29.0382 23.4175 28.9989L17.14 22.0549C16.1195 20.9317 14.7384 20.3012 13.2989 20.3012C11.8593 20.3012 10.4782 20.9317 9.45775 22.0549L1.29694 31.0821C1.06225 31.3417 0.876045 31.6499 0.749031 31.9891C0.622017 32.3283 0.556641 32.6919 0.556641 33.059C0.556641 33.4262 0.622017 33.7897 0.749031 34.1289C0.876045 34.4681 1.06225 34.7763 1.29694 35.0359C1.53163 35.2955 1.81025 35.5014 2.11688 35.6419C2.42352 35.7824 2.75215 35.8547 3.08406 35.8547C3.41596 35.8547 3.74464 35.7824 4.05128 35.6419C4.35792 35.5014 4.63653 35.2955 4.87122 35.0359L13.032 26.0087C13.0626 25.962 13.1027 25.9241 13.1491 25.8979C13.1955 25.8718 13.2468 25.8581 13.2989 25.8581C13.3509 25.8581 13.4022 25.8718 13.4486 25.8979C13.495 25.9241 13.5351 25.962 13.5657 26.0087L19.8432 32.9527C20.862 34.0777 22.2428 34.7096 23.6823 34.7096C25.1219 34.7096 26.5027 34.0777 27.5215 32.9527L33.9991 25.7917C34.0717 25.7172 34.167 25.6758 34.2659 25.6758C34.3649 25.6758 34.4602 25.7172 34.5327 25.7917L41.0849 33.0395C42.1044 34.1648 43.4858 34.7968 44.926 34.7968C46.3662 34.7968 47.7476 34.1648 48.7671 33.0395L55.0447 26.0954C55.5187 25.5711 55.7849 24.8601 55.7849 24.1186C55.7849 23.3771 55.5187 22.666 55.0447 22.1417C54.5707 21.6174 53.9278 21.3228 53.2575 21.3228C52.5872 21.3228 51.9444 21.6174 51.4704 22.1417V22.1417Z" fill="#E0343B"/>
</svg>
