<svg width="53" height="45" viewBox="0 0 53 45" fill="none" xmlns="http://www.w3.org/2000/svg">
<path d="M39.0857 0.011761C36.4463 0.0136264 33.8616 0.791499 31.6317 2.25505C29.4017 3.71861 27.618 5.80782 26.4875 8.28011C25.5872 6.299 24.2634 4.55655 22.6164 3.18502C20.9695 1.8135 19.0427 0.84896 16.9824 0.364628C14.9222 -0.119705 12.7825 -0.111099 10.7259 0.389789C8.66932 0.890677 6.74984 1.87068 5.1132 3.25541C3.47656 4.64014 2.16577 6.39318 1.28035 8.38147C0.394927 10.3698 -0.0418502 12.541 0.00315669 14.7304C0.0481635 16.9198 0.573776 19.0699 1.5401 21.0172C2.50643 22.9646 3.88806 24.6582 5.58012 25.9694C5.83616 26.1684 6.12749 26.3132 6.4375 26.3954C6.74751 26.4777 7.07012 26.4959 7.3869 26.4489C7.70368 26.402 8.00843 26.2908 8.28376 26.1217C8.55909 25.9527 8.79961 25.7291 8.99158 25.4637C9.18354 25.1983 9.32319 24.8963 9.40257 24.5749C9.48194 24.2536 9.49946 23.9191 9.45416 23.5908C9.40885 23.2624 9.3016 22.9465 9.13852 22.6611C8.97543 22.3757 8.75972 22.1264 8.50368 21.9274C6.98752 20.7483 5.86745 19.1048 5.30198 17.2295C4.73652 15.3542 4.75429 13.3421 5.35279 11.4778C5.95129 9.61356 7.10021 7.99162 8.63696 6.84152C10.1737 5.69142 12.0204 5.07141 13.9159 5.06922C15.1091 5.07486 16.2897 5.32435 17.3898 5.80341C18.49 6.28248 19.4883 6.98172 20.3275 7.86111C21.1667 8.74051 21.8304 9.78281 22.2806 10.9284C22.7309 12.0739 22.9587 13.3003 22.9513 14.5372L24.0632 42.6158C24.0979 43.2601 24.3692 43.8662 24.8215 44.3096C25.2737 44.7529 25.8726 45 26.4951 45C27.1176 45 27.7164 44.7529 28.1687 44.3096C28.621 43.8662 28.8923 43.2601 28.927 42.6158L30.0616 14.4157C30.0611 12.8184 30.4548 11.2474 31.2051 9.85223C31.9554 8.45704 33.0375 7.28395 34.3484 6.44447C35.6594 5.60498 37.1557 5.127 38.6951 5.05596C40.2346 4.98492 41.7659 5.32316 43.1437 6.03856C44.5215 6.75396 45.6998 7.82273 46.5668 9.14328C47.4337 10.4638 47.9605 11.9923 48.0969 13.5833C48.2334 15.1744 47.975 16.7752 47.3464 18.2336C46.7178 19.692 45.7398 20.9595 44.5054 21.9156C44.2494 22.1143 44.0336 22.3634 43.8704 22.6486C43.7072 22.9337 43.5999 23.2494 43.5544 23.5776C43.5089 23.9058 43.5262 24.2401 43.6054 24.5613C43.6845 24.8826 43.8239 25.1845 44.0156 25.4499C44.2073 25.7153 44.4476 25.939 44.7227 26.1082C44.9978 26.2773 45.3024 26.3886 45.619 26.4358C45.9356 26.4829 46.258 26.465 46.5679 26.3829C46.8778 26.3009 47.1691 26.1564 47.4252 25.9576C49.7624 24.1447 51.49 21.6154 52.3632 18.728C53.2364 15.8406 53.211 12.7416 52.2905 9.87006C51.3701 6.99849 49.6012 4.49999 47.2346 2.72852C44.868 0.957058 42.0237 0.00246448 39.1046 0L39.0857 0.011761Z" fill="#E0343B"/>
</svg>
