<svg width="37" height="35" viewBox="0 0 37 35" fill="none" xmlns="http://www.w3.org/2000/svg">
<path d="M25.0235 18.3721C24.9531 18.4767 24.9531 18.5812 24.9179 18.7207C24.8827 19.1739 25.2346 19.5922 25.6921 19.6271C26.1497 19.662 26.572 19.3133 26.6072 18.8601C26.6072 18.7556 26.6072 18.651 26.6424 18.4767C26.6424 18.3024 26.6424 18.1978 26.6424 18.0932C26.6424 17.0822 26.4664 16.1061 26.1497 15.1648C25.7273 13.9447 24.9883 12.864 24.1084 11.9576C23.0174 10.8768 21.68 10.1099 20.1667 9.69155C19.4628 9.51724 18.6886 9.41266 17.9495 9.41266C17.7031 9.41266 17.4568 9.41266 17.1752 9.44752C16.9289 9.48238 16.6825 9.51724 16.4361 9.5521C15.9786 9.62183 15.6619 10.075 15.7675 10.4934C15.8378 10.9466 16.2954 11.2603 16.7177 11.1557C16.9289 11.1209 17.1048 11.086 17.316 11.086C17.3512 11.086 17.3864 11.086 17.4216 11.086C17.5975 11.086 17.7735 11.0512 17.9495 11.0512C19.8851 11.0512 21.68 11.8181 22.947 13.108C24.214 14.363 24.9883 16.0712 25.0235 17.9886V18.0583C25.0235 18.1978 25.0235 18.3024 25.0235 18.3721Z" fill="#166F04"/>
<path d="M29.6671 19.139C29.6319 19.5922 29.9838 20.0105 30.4413 20.0454C30.8988 20.0803 31.3212 19.7316 31.3564 19.2784C31.3916 18.895 31.3916 18.5115 31.3916 18.128C31.3916 17.3611 31.3212 16.629 31.2156 15.8969C30.7581 13.1079 29.3855 10.5979 27.4498 8.68053C25.2326 6.48425 22.2763 5.05492 19.0033 4.81089C18.6513 4.77603 18.2642 4.77603 17.9123 4.77603C17.5251 4.77603 17.138 4.77603 16.7509 4.81089C16.3637 4.84575 15.9766 4.88062 15.5895 4.95034C15.1319 5.02006 14.8152 5.47326 14.9208 5.8916C14.9912 6.3448 15.4487 6.65856 15.871 6.55397C16.1174 6.51911 16.3285 6.48425 16.5749 6.44939C16.6805 6.44939 16.7861 6.41452 16.8916 6.41452C17.2436 6.37966 17.5955 6.37966 17.9123 6.37966C19.1089 6.37966 20.2351 6.55397 21.3261 6.86772C23.2266 7.42551 24.9159 8.4365 26.2884 9.7961C27.4146 10.9117 28.3297 12.2713 28.928 13.7355C29.4559 15.0602 29.7726 16.5244 29.7726 18.0583C29.7726 18.1629 29.7726 18.3023 29.7726 18.4069C29.7022 18.6858 29.6671 18.895 29.6671 19.139Z" fill="#166F04"/>
<path d="M30.8636 5.33382C27.5202 2.02197 22.945 0 17.877 0C17.3491 0 16.8212 0.0348616 16.2933 0.0697231C15.7654 0.104585 15.2375 0.174308 14.7096 0.278892C14.2521 0.348615 13.9353 0.801816 14.0409 1.22015C14.1113 1.67335 14.5688 1.98711 14.9911 1.88252C15.2375 1.84766 15.4487 1.8128 15.695 1.77794C15.9414 1.74308 16.1877 1.70822 16.4341 1.70822C16.9268 1.67335 17.3843 1.63849 17.877 1.63849C22.4523 1.63849 26.6051 3.48615 29.6318 6.44939C32.6233 9.41262 34.4886 13.5263 34.4886 18.0931C34.4886 18.3372 34.4886 18.6161 34.4886 18.8601C34.4886 19.0693 34.4534 19.2784 34.4534 19.5225C34.4182 19.9757 34.7701 20.394 35.2277 20.4289C35.6852 20.4637 36.1075 20.1151 36.1427 19.6619C36.1779 19.139 36.2131 18.6161 36.2131 18.128C36.2131 13.1428 34.1719 8.6108 30.8636 5.33382Z" fill="#166F04"/>
<path d="M34.912 26.4599L28.6827 23.1481C26.6062 22.0325 26.5358 22.7646 24.3538 25.0655C23.8259 25.6233 22.8405 27.0875 21.6791 26.8086C19.2507 26.2159 14.7107 22.6949 13.2325 21.0913C12.5286 20.3243 9.50196 16.6638 9.46676 15.4786C9.39637 13.6658 13.4085 12.7594 12.1063 9.30806L9.32599 3.13756C6.72163 -2.7889 -0.563523 6.69344 0.0347746 11.1209C1.58331 22.0325 20.9048 39.6725 31.6742 33.8506C34.0674 32.5259 37.3052 27.8893 34.912 26.4599Z" fill="#166F04"/>
</svg>
