<svg width="44" height="36" viewBox="0 0 44 36" fill="none" xmlns="http://www.w3.org/2000/svg">
<path d="M4.18646 30.648L4.24073 30.6986L4.36474 30.7803L4.52755 30.8891C9.52073 34.006 15.275 35.6787 21.1556 35.7227C27.6091 35.7227 35.272 33.5762 42.9697 26.4716C43.457 26.022 43.7462 25.3965 43.7738 24.7329C43.8015 24.0693 43.5652 23.4218 43.117 22.933C42.6688 22.4441 42.0454 22.1539 41.3839 22.1262C40.7224 22.0985 40.0771 22.3356 39.5898 22.7852C30.489 31.1808 21.6556 31.5502 15.5082 30.1736C16.9507 28.9286 17.9707 27.2635 18.4263 25.41C18.8819 23.5564 18.7505 21.6066 18.0503 19.8314C17.3502 18.0563 16.1162 16.5441 14.5198 15.5052C12.9234 14.4662 11.044 13.9521 9.14288 14.0344C7.24179 14.1167 5.41351 14.7912 3.91222 15.9642C2.41093 17.1372 1.31125 18.7504 0.766094 20.5794C0.220936 22.4084 0.257379 24.3625 0.870375 26.1697C1.48337 27.977 2.64247 29.5478 4.18646 30.6636V30.648ZM9.53531 19.0366C10.0924 19.0195 10.6473 19.1149 11.1669 19.317C11.6866 19.5191 12.1606 19.8238 12.5606 20.2132C12.9607 20.6025 13.2788 21.0684 13.496 21.5834C13.7132 22.0984 13.8252 22.6518 13.8252 23.211C13.8252 23.7702 13.7132 24.3237 13.496 24.8387C13.2788 25.3536 12.9607 25.8196 12.5606 26.2089C12.1606 26.5982 11.6866 26.903 11.1669 27.1051C10.6473 27.3072 10.0924 27.4025 9.53531 27.3855C8.71679 27.3868 7.91652 27.1431 7.23687 26.6855L7.18648 26.6505C6.45425 26.1469 5.90189 25.4214 5.61015 24.5802C5.31841 23.739 5.30263 22.8263 5.56511 21.9754C5.82758 21.1246 6.35453 20.3803 7.0689 19.8515C7.78327 19.3227 8.64754 19.0372 9.53531 19.0366V19.0366Z" fill="#E0343B"/>
<path d="M2.88104 13.8193C3.50724 13.8205 4.11079 13.5848 4.57091 13.1592C13.6714 4.77158 22.5045 4.40268 28.6516 5.7812C27.208 7.02445 26.1869 8.68747 25.7303 10.539C25.2738 12.3906 25.4045 14.3387 26.1042 16.1124C26.8039 17.8862 28.0379 19.3974 29.6346 20.4359C31.2312 21.4745 33.1112 21.9887 35.0131 21.9072C36.915 21.8257 38.7444 21.1525 40.2467 19.9811C41.749 18.8097 42.8496 17.1985 43.3956 15.3713C43.9416 13.5442 43.9057 11.5921 43.293 9.78633C42.6803 7.98058 41.5212 6.41099 39.9768 5.29581C39.9594 5.27574 39.9399 5.25752 39.9187 5.24144L39.7908 5.15601L39.6629 5.0667C37.3142 3.51344 19.3457 -7.26621 1.19118 9.45856C0.82189 9.79999 0.563861 10.245 0.450779 10.7355C0.337696 11.2261 0.374798 11.7394 0.557232 12.2085C0.739667 12.6776 1.05896 13.0807 1.47349 13.3653C1.88802 13.6499 2.37854 13.8027 2.88104 13.8038V13.8193ZM34.6243 16.9026C34.0672 16.9196 33.5124 16.8244 32.9927 16.6226C32.4731 16.4207 31.9992 16.1164 31.5991 15.7276C31.199 15.3389 30.881 14.8736 30.6638 14.3593C30.4466 13.8451 30.3346 13.2924 30.3346 12.734C30.3346 12.1756 30.4466 11.6229 30.6638 11.1087C30.881 10.5944 31.199 10.1291 31.5991 9.74035C31.9992 9.35158 32.4731 9.04726 32.9927 8.84544C33.5124 8.64361 34.0672 8.54839 34.6243 8.56542C35.4441 8.56352 36.2457 8.80692 36.9265 9.2644L36.9731 9.29546C37.707 9.79776 38.2609 10.5224 38.5538 11.3632C38.8466 12.2039 38.8629 13.1166 38.6002 13.9673C38.3376 14.818 37.8098 15.562 37.0943 16.0902C36.3787 16.6185 35.5131 16.9032 34.6243 16.9026V16.9026Z" fill="#E0343B"/>
</svg>
