<svg width="58" height="40" viewBox="0 0 58 40" fill="none" xmlns="http://www.w3.org/2000/svg">
<path d="M48.2897 15.3093C46.5196 15.3113 44.7838 15.7705 43.2697 16.6373C41.7556 17.5042 40.5207 18.7457 39.6985 20.2279C38.5622 17.1385 37.9828 13.6261 37.9828 9.59618C37.9793 7.4759 37.2331 5.41641 35.8608 3.73957C34.4885 2.06273 32.5674 0.862989 30.3977 0.327824C28.228 -0.207341 25.932 -0.0477541 23.8683 0.781597C21.8047 1.61095 20.0897 3.06335 18.9914 4.91188C17.8965 3.05853 16.182 1.6012 14.1169 0.768444C12.0517 -0.0643146 9.75266 -0.225397 7.58025 0.310436C5.40784 0.846268 3.48495 2.0487 2.1131 3.7292C0.741251 5.40971 -0.00197249 7.47325 3.93169e-06 9.59618C3.93169e-06 10.116 0.218404 10.6146 0.607159 10.9822C0.995914 11.3498 1.52318 11.5563 2.07296 11.5563C2.62275 11.5563 3.15001 11.3498 3.53877 10.9822C3.92752 10.6146 4.14592 10.116 4.14592 9.59618C4.15745 8.09309 4.79996 6.65587 5.93212 5.60073C7.06428 4.54559 8.59335 3.95896 10.1829 3.96986C11.7725 3.98075 13.2924 4.58829 14.4083 5.65884C15.5241 6.7294 16.1446 8.17527 16.133 9.67837L16.9184 27.7003C16.948 28.2012 17.1793 28.6725 17.5648 29.0173C17.9503 29.3621 18.4608 29.5542 18.9914 29.5542C19.522 29.5542 20.0325 29.3621 20.4181 29.0173C20.8036 28.6725 21.0348 28.2012 21.0644 27.7003L21.8498 9.59618C21.8498 8.09309 22.4812 6.65154 23.6052 5.58869C24.7293 4.52585 26.2537 3.92876 27.8433 3.92876C29.4329 3.92876 30.9574 4.52585 32.0814 5.58869C33.2054 6.65154 33.8369 8.09309 33.8369 9.59618C33.8369 16.8098 35.5783 22.882 39.0128 27.6607C37.586 30.3269 35.4183 32.5755 32.7425 34.1651C29.9181 35.746 26.6104 36.3747 23.3594 35.9488C23.0857 35.9043 22.8054 35.9123 22.535 35.9723C22.2647 36.0323 22.0098 36.143 21.7856 36.2979C21.5613 36.4528 21.3723 36.6488 21.2297 36.8741C21.0871 37.0994 20.9938 37.3495 20.9554 37.6096C20.917 37.8697 20.9343 38.1344 21.0062 38.388C21.0781 38.6417 21.2031 38.8791 21.3739 39.0861C21.5447 39.2932 21.7577 39.4657 22.0004 39.5934C22.2431 39.7211 22.5104 39.8014 22.7865 39.8295C23.6394 39.9444 24.5 40.0014 25.3616 40C28.7077 40.0005 31.9923 39.1488 34.8702 37.5345C37.6215 35.9284 39.9489 33.7495 41.6749 31.164C42.8296 32.1858 44.231 32.925 45.757 33.3173C47.283 33.7096 48.8873 33.7431 50.4302 33.4149C51.973 33.0867 53.4076 32.4068 54.6089 31.4343C55.8102 30.4618 56.7418 29.2263 57.3225 27.8354C57.9032 26.4445 58.1154 24.9404 57.9406 23.4542C57.7658 21.968 57.2093 20.5447 56.3196 19.3085C55.4299 18.0722 54.2341 17.0604 52.8362 16.3612C51.4383 15.6621 49.8807 15.2967 48.2993 15.2971L48.2897 15.3093ZM48.2897 29.7426C47.2599 29.7392 46.2515 29.465 45.3772 28.9506C44.5028 28.4361 43.7972 27.7018 43.339 26.8298C43.2867 26.6714 43.2131 26.52 43.1201 26.3793C42.8655 25.777 42.7333 25.1347 42.7307 24.4861C42.7307 23.4464 43.0567 22.4302 43.6675 21.5657C44.2783 20.7013 45.1465 20.0276 46.1623 19.6297C47.1781 19.2319 48.2958 19.1277 49.3742 19.3306C50.4525 19.5334 51.443 20.034 52.2205 20.7692C52.9979 21.5043 53.5274 22.4409 53.7419 23.4606C53.9564 24.4803 53.8463 25.5372 53.4255 26.4977C53.0048 27.4582 52.2922 28.2791 51.3781 28.8567C50.4639 29.4343 49.3891 29.7426 48.2897 29.7426Z" fill="#E0343B"/>
</svg>
