<svg width="34" height="40" viewBox="0 0 34 40" fill="none" xmlns="http://www.w3.org/2000/svg">
<path d="M0.000205149 24.5135C-0.00179149 25.5932 0.228875 26.6607 0.676488 27.6431C1.1241 28.6256 1.77813 29.4999 2.59402 30.2066C3.40991 30.9133 4.36848 31.4357 5.40439 31.7382C6.44031 32.0406 7.52923 32.1161 8.59694 31.9595C9.66465 31.8028 10.6861 31.4177 11.5916 30.8303C12.497 30.243 13.2654 29.4673 13.8441 28.556C14.4229 27.6447 14.7985 26.6192 14.9453 25.5496C15.0922 24.4799 15.0068 23.3911 14.6951 22.3575V22.3344C14.4495 21.533 14.0713 20.7786 13.5764 20.1024C12.6524 17.494 12.4808 13.2248 12.626 10.6791C12.626 10.6395 12.626 10.5966 12.626 10.557C12.5824 9.6813 12.7177 8.80594 13.0237 7.98437C13.3297 7.16281 13.7999 6.41231 14.4056 5.77874C15.0113 5.14517 15.7398 4.64183 16.5465 4.29951C17.3533 3.9572 18.2213 3.78308 19.0976 3.7878C19.9738 3.79253 20.8399 3.97599 21.6429 4.32698C22.4459 4.67797 23.169 5.18912 23.7678 5.82918C24.3667 6.46924 24.8288 7.22475 25.1259 8.04957C25.4231 8.87438 25.549 9.75116 25.4959 10.6263C25.5531 12.5967 25.3512 14.566 24.8953 16.4836C24.4795 18.2303 23.5456 19.5047 22.4665 20.9806C21.7704 21.9002 21.1281 22.8594 20.5426 23.8532C19.48 25.7121 18.9355 28.0002 18.8728 30.8463C18.8101 33.6924 19.711 36.2513 21.3412 37.922C22.0035 38.5955 22.7959 39.1271 23.6702 39.4841C24.5445 39.8412 25.4824 40.0163 26.4265 39.9988C31.1026 39.9988 34 35.3763 34 31.084C33.9783 30.5342 33.7448 30.014 33.3483 29.6326C32.9518 29.2512 32.4232 29.0382 31.8732 29.0382C31.3232 29.0382 30.7945 29.2512 30.398 29.6326C30.0015 30.014 29.768 30.5342 29.7463 31.084C29.7463 32.9859 28.5649 35.7362 26.4265 35.7362C26.0486 35.7535 25.6713 35.6913 25.3189 35.5537C24.9665 35.4161 24.6468 35.2061 24.3805 34.9372C23.5555 34.0952 23.0836 32.5963 23.1232 30.9289C23.1694 28.8091 23.5324 27.1813 24.2353 25.9531C24.7368 25.0984 25.2877 24.2738 25.8853 23.4834C27.1228 21.7929 28.3999 20.0429 29.017 17.461C29.5588 15.1979 29.7995 12.8732 29.7331 10.5471C29.6928 7.74137 28.5526 5.06377 26.5582 3.09104C24.5638 1.1183 21.8748 0.00827218 19.0703 4.60471e-05C16.2658 -0.00818008 13.5704 1.08606 11.5644 3.04706C9.55851 5.00807 8.40267 7.67892 8.34588 10.4843C8.23789 12.688 8.31405 14.8969 8.57358 17.0879C7.50781 16.9254 6.4195 16.9963 5.38377 17.2956C4.34804 17.5949 3.38955 18.1155 2.57447 18.8215C1.75938 19.5274 1.1071 20.402 0.66266 21.3847C0.218221 22.3674 -0.00779398 23.4349 0.000205149 24.5135V24.5135ZM10.6625 23.7475C10.821 24.4049 10.7707 25.0954 10.5187 25.7229C10.2667 26.3504 9.82539 26.8837 9.25629 27.2485C8.68719 27.6134 8.01857 27.7917 7.34348 27.7586C6.66838 27.7255 6.0204 27.4826 5.48969 27.0638C4.95899 26.645 4.57196 26.0711 4.38248 25.422C4.193 24.7728 4.21049 24.0807 4.4325 23.442C4.65452 22.8032 5.07001 22.2496 5.62119 21.8582C6.17236 21.4667 6.83178 21.2569 7.50768 21.258C7.95645 21.2585 8.40016 21.3527 8.81043 21.5347C9.2207 21.7166 9.5885 21.9822 9.89028 22.3146C10.1096 22.8164 10.3724 23.2981 10.6757 23.7541L10.6625 23.7475Z" fill="#E0343B"/>
</svg>
