<svg width="58" height="35" viewBox="0 0 58 35" fill="none" xmlns="http://www.w3.org/2000/svg">
<path d="M54.8833 28.3054H3.01019C2.35073 28.3353 1.72691 28.6578 1.26952 29.2053C0.812126 29.7528 0.556641 30.4829 0.556641 31.2423C0.556641 32.0018 0.812126 32.7318 1.26952 33.2793C1.72691 33.8268 2.35073 34.1493 3.01019 34.1792H54.8833C55.5428 34.1493 56.1666 33.8268 56.624 33.2793C57.0813 32.7318 57.3368 32.0018 57.3368 31.2423C57.3368 30.4829 57.0813 29.7528 56.624 29.2053C56.1666 28.6578 55.5428 28.3353 54.8833 28.3054Z" fill="#E0343B"/>
<path d="M54.8749 16.0732H45.0526V14.5608C44.9863 10.9166 43.2602 7.44107 40.247 4.88422C37.2338 2.32736 33.175 0.894287 28.9467 0.894287C24.7184 0.894287 20.6597 2.32736 17.6464 4.88422C14.6332 7.44107 12.9072 10.9166 12.8409 14.5608V16.0732H3.01065C2.35106 16.0956 1.72715 16.3372 1.26967 16.7473C0.812179 17.1575 0.556641 17.7044 0.556641 18.2734C0.556641 18.8424 0.812179 19.3893 1.26967 19.7995C1.72715 20.2097 2.35106 20.4513 3.01065 20.4737H15.3955C16.0723 20.4728 16.7211 20.2404 17.1993 19.8275C17.6775 19.4147 17.9462 18.8551 17.9462 18.2717V14.5608C18.0008 12.0772 19.1838 9.71117 21.2409 7.9714C23.2979 6.23162 26.0648 5.25698 28.9467 5.25698C31.8286 5.25698 34.5955 6.23162 36.6525 7.9714C38.7096 9.71117 39.8926 12.0772 39.9473 14.5608V18.2717C39.9473 18.8557 40.2165 19.4158 40.6955 19.8287C41.1746 20.2417 41.8244 20.4737 42.5019 20.4737H54.8828C55.5424 20.4513 56.1663 20.2097 56.6238 19.7995C57.0813 19.3893 57.3368 18.8424 57.3368 18.2734C57.3368 17.7044 57.0813 17.1575 56.6238 16.7473C56.1663 16.3372 55.5424 16.0956 54.8828 16.0732H54.8749Z" fill="#E0343B"/>
</svg>
