<svg width="40" height="40" viewBox="0 0 40 40" fill="none" xmlns="http://www.w3.org/2000/svg">
<path d="M37.6708 18.441H28.7067C29.1387 9.08375 34.5675 4.64559 34.8267 4.44333C35.3232 4.05822 35.6551 3.47981 35.7493 2.83535C35.8434 2.19089 35.6923 1.53318 35.329 1.00688C34.9657 0.480589 34.42 0.128831 33.812 0.0289952C33.2041 -0.0708404 32.5836 0.0894171 32.0871 0.474524C31.7667 0.722573 24.527 6.47731 24.0734 18.441H15.9409C15.4801 6.47731 8.24769 0.722573 7.92729 0.474524C7.42984 0.0909352 6.80899 -0.0674587 6.20136 0.0341661C5.59374 0.135791 5.04912 0.489126 4.68725 1.01643C4.32539 1.54374 4.17592 2.20182 4.27179 2.84592C4.36766 3.49002 4.70099 4.06738 5.19843 4.45097C5.25603 4.49676 10.8613 8.954 11.3185 18.441H2.3184C1.70352 18.441 1.11384 18.6999 0.67905 19.1608C0.244261 19.6217 0 20.2468 0 20.8986C0 21.5504 0.244261 22.1755 0.67905 22.6363C1.11384 23.0972 1.70352 23.3562 2.3184 23.3562H11.0737C9.8965 31.2289 5.31362 35.4038 5.09762 35.5946C4.85124 35.7955 4.64553 36.0469 4.49266 36.3338C4.33979 36.6207 4.24288 36.9373 4.20776 37.2648C4.17264 37.5922 4.19999 37.9237 4.28818 38.2397C4.37638 38.5556 4.52365 38.8496 4.72118 39.1041C4.91871 39.3585 5.16248 39.5682 5.43802 39.7208C5.71356 39.8733 6.01521 39.9656 6.32507 39.9921C6.63492 40.0185 6.94666 39.9787 7.24169 39.8749C7.53672 39.7711 7.80904 39.6054 8.04247 39.3878C8.33407 39.1359 14.4721 33.6331 15.7466 23.36H24.2822C25.553 33.6369 31.6947 39.1398 31.9827 39.3878C32.2173 39.5966 32.4885 39.7541 32.7808 39.8511C33.0731 39.9482 33.3806 39.9829 33.6857 39.9532C33.9907 39.9235 34.2871 39.8301 34.5578 39.6783C34.8286 39.5264 35.0683 39.3192 35.2631 39.0687C35.4579 38.8181 35.6039 38.5291 35.6927 38.2184C35.7815 37.9076 35.8112 37.5813 35.7804 37.2583C35.7495 36.9352 35.6586 36.6219 35.5128 36.3363C35.3671 36.0508 35.1693 35.7987 34.9311 35.5946C34.8771 35.545 30.1575 31.3319 28.9551 23.3562H37.6816C38.2964 23.3562 38.8862 23.0972 39.321 22.6363C39.7557 22.1755 40 21.5504 40 20.8986C40 20.2468 39.7557 19.6217 39.321 19.1608C38.8862 18.6999 38.2964 18.441 37.6816 18.441H37.6708Z" fill="#E0343B"/>
</svg>
