<svg width="44" height="42" viewBox="0 0 44 42" fill="none" xmlns="http://www.w3.org/2000/svg">
<path d="M41.5438 0.00181158H26.2167C25.8863 -0.0105715 25.5566 0.0406278 25.2475 0.152368C24.9384 0.264108 24.6562 0.4341 24.4178 0.6521C24.1794 0.8701 23.9897 1.13161 23.8602 1.42102C23.7306 1.71043 23.6639 2.02174 23.6639 2.3363C23.6639 2.65085 23.7306 2.96216 23.8602 3.25157C23.9897 3.54098 24.1794 3.80254 24.4178 4.02054C24.6562 4.23854 24.9384 4.40849 25.2475 4.52023C25.5566 4.63197 25.8863 4.68321 26.2167 4.67083H35.7785L19.7013 19.9637L12.9269 13.5198C12.4668 13.0822 11.8429 12.8364 11.1923 12.8364C10.5417 12.8364 9.91782 13.0822 9.45779 13.5198C8.99776 13.9574 8.73932 14.5509 8.73932 15.1698C8.73932 15.7886 8.99776 16.3821 9.45779 16.8196L16.2322 23.2635L0.71847 38.0167C0.490688 38.2334 0.310002 38.4906 0.186727 38.7737C0.0634518 39.0568 1.01826e-08 39.3602 0 39.6667C-1.01827e-08 39.9731 0.0634518 40.2765 0.186727 40.5596C0.310002 40.8427 0.490688 41.0999 0.71847 41.3166C0.946253 41.5332 1.21667 41.7051 1.51428 41.8224C1.81189 41.9396 2.13087 42 2.453 42C2.77514 42 3.09411 41.9396 3.39173 41.8224C3.68934 41.7051 3.95975 41.5332 4.18753 41.3166L19.7013 26.5597L25.6303 32.2031C26.0903 32.6407 26.7142 32.8865 27.3648 32.8865C28.0154 32.8865 28.6393 32.6407 29.0993 32.2031C29.5594 31.7656 29.8178 31.172 29.8178 30.5532C29.8178 29.9344 29.5594 29.3409 29.0993 28.9033L23.1665 23.2635L39.0915 8.11554V17.5006C39.1165 18.1039 39.386 18.6745 39.8435 19.0929C40.301 19.5113 40.9111 19.745 41.5457 19.745C42.1804 19.745 42.7904 19.5113 43.248 19.0929C43.7055 18.6745 43.975 18.1039 44 17.5006V2.34899C44.0015 2.04126 43.9391 1.73628 43.8163 1.45157C43.6935 1.16686 43.5129 0.908048 43.2846 0.689949C43.0564 0.47185 42.7851 0.298756 42.4864 0.180666C42.1877 0.0625765 41.8673 0.00180825 41.5438 0.00181158V0.00181158Z" fill="#E0343B"/>
</svg>
