<svg width="54" height="40" viewBox="0 0 54 40" fill="none" xmlns="http://www.w3.org/2000/svg">
<path d="M53.1176 31.0195L46.8655 26.1026C46.5419 25.8482 46.1562 25.6925 45.752 25.6532C45.3478 25.614 44.941 25.6926 44.5776 25.8802C44.2141 26.0679 43.9083 26.3571 43.6947 26.7153C43.4812 27.0736 43.3682 27.4866 43.3687 27.9078V30.1942H41.1109C40.6784 30.0142 40.3081 29.7031 40.0485 29.3015C39.7888 28.9 39.6518 28.4265 39.6554 27.9429V8.55621C39.6582 6.83304 39.1586 5.14927 38.2222 3.72609C37.2858 2.30292 35.9564 1.20689 34.4087 0.581948C32.8609 -0.0429941 31.1672 -0.167619 29.5499 0.224458C27.9327 0.616535 26.4675 1.50697 25.3469 2.77881C24.5843 1.91055 23.6567 1.21545 22.6225 0.737253C21.5883 0.259055 20.4699 0.0081106 19.3377 0.000193369C18.2055 -0.00772386 17.084 0.22756 16.0437 0.691251C15.0034 1.15494 14.0668 1.83701 13.2929 2.69452C12.6003 1.85727 11.7428 1.18366 10.7782 0.719011C9.81365 0.254359 8.76433 0.00942767 7.70089 0.000729272C3.45609 0.000729272 0 3.83946 0 8.55621C0.02221 9.14111 0.261782 9.69438 0.668489 10.1001C1.0752 10.5057 1.61749 10.7323 2.18166 10.7323C2.74583 10.7323 3.28808 10.5057 3.69479 10.1001C4.1015 9.69438 4.34107 9.14111 4.36328 8.55621C4.36328 6.33305 5.85945 4.52782 7.70089 4.52782C9.54234 4.52782 11.0385 6.33305 11.0385 8.55621V30.6824C11.0385 31.2823 11.2682 31.8575 11.677 32.2817C12.0859 32.7059 12.6403 32.9442 13.2185 32.9442C13.7966 32.9442 14.3511 32.7059 14.7599 32.2817C15.1687 31.8575 15.3984 31.2823 15.3984 30.6824V8.55621C15.3984 7.48502 15.8085 6.45769 16.5386 5.70025C17.2686 4.94281 18.2587 4.5173 19.2912 4.5173C20.3236 4.5173 21.3138 4.94281 22.0438 5.70025C22.7738 6.45769 23.1839 7.48502 23.1839 8.55621V30.6824C23.1839 31.2823 23.4136 31.8575 23.8224 32.2817C24.2312 32.7059 24.7857 32.9442 25.3639 32.9442C25.942 32.9442 26.4965 32.7059 26.9053 32.2817C27.3141 31.8575 27.5438 31.2823 27.5438 30.6824V8.55621C27.5438 7.48502 27.9539 6.45769 28.684 5.70025C29.414 4.94281 30.4041 4.5173 31.4366 4.5173C32.469 4.5173 33.4592 4.94281 34.1892 5.70025C34.9192 6.45769 35.3293 7.48502 35.3293 8.55621V27.9429C35.3156 29.479 35.7992 30.9754 36.7027 32.1923C37.6061 33.4093 38.8771 34.2763 40.3121 34.6546C40.484 34.6965 40.6601 34.7178 40.8367 34.7178V34.7178H43.389V37.7382C43.3886 38.1588 43.5015 38.5711 43.7151 38.9286C43.9286 39.2861 44.2342 39.5744 44.5975 39.7612C44.8987 39.9189 45.2315 40.0007 45.569 40C46.0446 40.0003 46.5072 39.8386 46.8857 39.5399L53.1379 34.623C53.4058 34.4116 53.6231 34.1389 53.7726 33.826C53.9222 33.5132 54 33.1687 54 32.8195C54 32.4703 53.9222 32.1258 53.7726 31.8129C53.6231 31.5001 53.4058 31.2274 53.1379 31.016L53.1176 31.0195Z" fill="#E0343B"/>
</svg>
