<svg width="48" height="44" viewBox="0 0 48 44" fill="none" xmlns="http://www.w3.org/2000/svg">
<path d="M2.90971 4.82387C2.98344 4.82387 4.75291 4.45253 7.49558 5.78194C8.72684 6.38352 9.78852 7.75749 11.3921 9.83702C12.6012 11.4004 14.1421 13.4019 16.3134 15.7785C13.4677 17.459 11.2492 20.0352 9.99983 23.1105C8.7504 26.1859 8.53927 29.5897 9.39896 32.7977C10.2587 36.0058 12.1415 38.8402 14.7575 40.8644C17.3734 42.8886 20.5775 43.9903 23.8761 43.9999C27.1748 44.0096 30.3851 42.9265 33.0127 40.9176C35.6403 38.9087 37.5393 36.0853 38.4174 32.8823C39.2955 29.6793 39.104 26.2743 37.8722 23.1918C36.6405 20.1092 34.4369 17.5201 31.6009 15.8231C33.7943 13.4354 35.3462 11.4227 36.5627 9.84816C38.1663 7.76863 39.228 6.39466 40.4556 5.7968C43.1466 4.48595 44.8792 4.8053 45.0378 4.83501C45.3398 4.91279 45.6542 4.92988 45.9628 4.88529C46.2714 4.8407 46.5683 4.73531 46.8365 4.57514C47.1047 4.41497 47.339 4.20315 47.5259 3.95178C47.7129 3.70041 47.8488 3.41441 47.926 3.11012C48.0033 2.80582 48.0202 2.48919 47.9759 2.17829C47.9317 1.86739 47.8271 1.56831 47.6681 1.29814C47.5091 1.02797 47.2988 0.791988 47.0492 0.603678C46.7997 0.415368 46.5158 0.278418 46.2137 0.200637C45.8709 0.107801 42.7485 -0.634887 38.3912 1.4892C36.1573 2.57353 34.7527 4.39311 32.8137 6.91454C30.9544 9.38784 28.9465 11.7441 26.8012 13.9701C24.9318 13.5988 23.0083 13.5988 21.1389 13.9701C18.9989 11.7526 16.9959 9.40499 15.1411 6.94053C13.1984 4.41911 11.7939 2.59952 9.56364 1.5152C5.20264 -0.608891 2.08028 0.133797 1.74114 0.226634C1.14528 0.387279 0.636093 0.777636 0.323618 1.31337C0.0111436 1.8491 -0.0795376 2.48717 0.0711913 3.0897C0.232099 3.69103 0.616863 4.20678 1.1455 4.52974C1.67413 4.85271 2.30597 4.95804 2.90971 4.82387V4.82387ZM34.2108 28.8127C34.2108 30.8633 33.6072 32.8678 32.4763 34.5728C31.3453 36.2778 29.7379 37.6067 27.8572 38.3914C25.9765 39.1762 23.907 39.3815 21.9105 38.9814C19.914 38.5814 18.08 37.5939 16.6406 36.144C15.2012 34.694 14.2209 32.8466 13.8238 30.8354C13.4267 28.8242 13.6305 26.7396 14.4095 24.8451C15.1885 22.9506 16.5077 21.3313 18.2003 20.1921C19.8929 19.0528 21.8828 18.4448 23.9184 18.4448C26.6476 18.4468 29.2643 19.5397 31.1941 21.4837C33.1239 23.4276 34.2089 26.0636 34.2108 28.8127V28.8127Z" fill="#E0343B"/>
</svg>
