<svg width="50" height="40" viewBox="0 0 50 40" fill="none" xmlns="http://www.w3.org/2000/svg">
<path d="M2.17398 10.5065C2.75326 10.5065 3.30881 10.2754 3.71842 9.86415C4.12803 9.45286 4.35815 8.89504 4.35815 8.31339C4.35815 6.15775 5.85724 4.40396 7.70225 4.40396C9.54726 4.40396 11.0463 6.15775 11.0463 8.31339V29.7676C11.0686 30.3348 11.3086 30.8713 11.7161 31.2646C12.1236 31.658 12.6669 31.8777 13.2322 31.8777C13.7975 31.8777 14.3408 31.658 14.7483 31.2646C15.1558 30.8713 15.3958 30.3348 15.4181 29.7676V8.31339C15.4181 7.27745 15.8279 6.28392 16.5574 5.5514C17.287 4.81888 18.2764 4.40734 19.3082 4.40734C20.3399 4.40734 21.3294 4.81888 22.0589 5.5514C22.7884 6.28392 23.1983 7.27745 23.1983 8.31339V29.7676C23.2206 30.3348 23.4606 30.8713 23.8681 31.2646C24.2756 31.658 24.8189 31.8777 25.3841 31.8777C25.9494 31.8777 26.4927 31.658 26.9002 31.2646C27.3077 30.8713 27.5478 30.3348 27.57 29.7676V8.31339C27.57 7.27745 27.9799 6.28392 28.7094 5.5514C29.4389 4.81888 30.4284 4.40734 31.4601 4.40734C32.4919 4.40734 33.4813 4.81888 34.2109 5.5514C34.9404 6.28392 35.3503 7.27745 35.3503 8.31339V29.7676C35.3659 30.407 35.4663 31.0415 35.6487 31.6543C33.772 33.238 31.7572 34.649 29.6287 35.8702C29.1173 36.1439 28.7352 36.6103 28.5663 37.1669C28.3974 37.7234 28.4557 38.3246 28.7282 38.838C29.0008 39.3515 29.4653 39.7352 30.0196 39.9048C30.5739 40.0743 31.1726 40.0159 31.684 39.7422C33.9011 38.4975 36.0042 37.0582 37.9686 35.4411C39.5151 36.9021 41.8756 38.0565 45.3723 38.2608H45.4978C46.0596 38.2494 46.5955 38.0213 46.9944 37.6239C47.3933 37.2265 47.6246 36.6901 47.6403 36.1261C47.656 35.5621 47.4549 35.0136 47.0787 34.5945C46.7026 34.1753 46.1802 33.9175 45.6199 33.8746C43.4798 33.752 42.1232 33.1935 41.2516 32.5124C43.9886 29.8119 46.7086 26.3997 48.496 22.3438C51.84 14.7497 48.7741 10.6563 47.2987 9.24648C46.2708 8.29907 45.0456 7.59353 43.7121 7.18118C42.3786 6.76884 40.9703 6.66003 39.5897 6.86267C39.3263 5.33802 38.6424 3.91807 37.6158 2.76405C36.5891 1.61003 35.2607 0.768154 33.7814 0.334059C32.3022 -0.100036 30.7314 -0.108982 29.2473 0.308244C27.7633 0.72547 26.4255 1.55216 25.3858 2.69442C24.6217 1.85253 23.6923 1.17854 22.6561 0.714864C21.6199 0.251188 20.4994 0.00786429 19.365 0.000187496C18.2306 -0.0074893 17.1069 0.220649 16.0645 0.670259C15.0222 1.11987 14.0839 1.78122 13.3085 2.61269C12.614 1.80527 11.7558 1.15608 10.7913 0.708566C9.82683 0.261049 8.77828 0.0255242 7.71581 0.0177509C3.46279 0.0177509 1.28782e-10 3.73989 1.28782e-10 8.31339C-6.26614e-06 8.89327 0.228712 9.44956 0.636125 9.86056C1.04354 10.2715 1.59647 10.5038 2.17398 10.5065ZM44.287 12.434C46.0133 14.0822 46.088 16.9734 44.5007 20.5764C43.2941 23.2069 41.6813 25.6296 39.722 27.755V11.3068C41.3601 10.939 43.1373 11.334 44.287 12.434V12.434Z" fill="#E0343B"/>
</svg>
