<svg width="287" height="15" viewBox="0 0 287 15" fill="none" xmlns="http://www.w3.org/2000/svg">
<path d="M8.84958 3.00286C8.252 3.00327 7.66678 3.17613 7.16189 3.50137C6.65699 3.8266 6.25312 4.29087 5.99717 4.84027C5.79334 4.40002 5.49359 4.01281 5.1207 3.70803C4.7478 3.40324 4.31156 3.1889 3.84508 3.08127C3.3786 2.97364 2.89415 2.97556 2.42851 3.08686C1.96287 3.19817 1.52827 3.41595 1.15771 3.72367C0.787146 4.03139 0.490364 4.42095 0.289891 4.86279C0.0894175 5.30463 -0.00947551 5.78714 0.000714722 6.27367C0.010905 6.76021 0.129912 7.23799 0.348703 7.67074C0.567494 8.10349 0.880317 8.47985 1.26342 8.77122C1.32139 8.81544 1.38736 8.84761 1.45755 8.8659C1.52774 8.88418 1.60078 8.88822 1.67251 8.87778C1.74423 8.86734 1.81323 8.84264 1.87557 8.80507C1.93791 8.7675 1.99237 8.71781 2.03583 8.65883C2.07929 8.59986 2.11091 8.53275 2.12888 8.46133C2.14685 8.38992 2.15082 8.31561 2.14056 8.24264C2.13031 8.16967 2.10602 8.09946 2.0691 8.03604C2.03217 7.97261 1.98333 7.91721 1.92536 7.87299C1.58208 7.61097 1.32848 7.24576 1.20045 6.82902C1.07242 6.41229 1.07644 5.96515 1.21195 5.55087C1.34746 5.13659 1.6076 4.77616 1.95554 4.52058C2.30348 4.265 2.72161 4.12722 3.15076 4.12674C3.42094 4.12799 3.68823 4.18343 3.93732 4.28989C4.18642 4.39635 4.41244 4.55174 4.60245 4.74716C4.79246 4.94258 4.94274 5.1742 5.04467 5.42877C5.14661 5.68334 5.19821 5.95586 5.19651 6.23074L5.44827 12.4704C5.45613 12.6136 5.51756 12.7483 5.61996 12.8468C5.72236 12.9453 5.85795 13.0002 5.99889 13.0002C6.13983 13.0002 6.27542 12.9453 6.37782 12.8468C6.48022 12.7483 6.54165 12.6136 6.5495 12.4704L6.8064 6.20373C6.80629 5.84877 6.89542 5.49967 7.0653 5.18963C7.23518 4.87959 7.48018 4.6189 7.777 4.43235C8.07383 4.2458 8.41262 4.13958 8.76117 4.12379C9.10971 4.108 9.45644 4.18317 9.76838 4.34215C10.0803 4.50112 10.3471 4.73863 10.5434 5.03208C10.7397 5.32554 10.859 5.6652 10.8899 6.01877C10.9208 6.37234 10.8623 6.72807 10.7199 7.05215C10.5776 7.37624 10.3562 7.65791 10.0767 7.87038C10.0187 7.91454 9.96987 7.96989 9.93292 8.03326C9.89598 8.09663 9.87167 8.16678 9.86137 8.23972C9.85107 8.31265 9.85499 8.38693 9.87291 8.45832C9.89083 8.52971 9.92239 8.59681 9.9658 8.65579C10.0092 8.71476 10.0636 8.76447 10.1259 8.80206C10.1882 8.83965 10.2571 8.86438 10.3288 8.87486C10.4005 8.88534 10.4735 8.88135 10.5437 8.86311C10.6139 8.84488 10.6798 8.81277 10.7378 8.76861C11.267 8.36574 11.6581 7.80366 11.8558 7.16202C12.0535 6.52039 12.0478 5.83172 11.8394 5.19359C11.631 4.55546 11.2305 4.00024 10.6946 3.60658C10.1588 3.21292 9.5148 3.00079 8.85387 3.00024L8.84958 3.00286Z" fill="#D0060E"/>
<path d="M26.6668 4.09658C26.6837 4.09658 27.0892 4.01218 27.7177 4.31432C27.9999 4.45104 28.2432 4.76331 28.6107 5.23593C28.8878 5.59124 29.2409 6.04614 29.7385 6.58627C29.0863 6.96819 28.578 7.55371 28.2916 8.25264C28.0053 8.95158 27.9569 9.72516 28.1539 10.4543C28.3509 11.1834 28.7824 11.8276 29.3819 12.2876C29.9814 12.7476 30.7157 12.998 31.4716 13.0002C32.2276 13.0024 32.9633 12.7563 33.5654 12.2997C34.1676 11.8431 34.6028 11.2014 34.804 10.4735C35.0052 9.74554 34.9613 8.97168 34.6791 8.27111C34.3968 7.57053 33.8918 6.98209 33.2419 6.5964C33.7445 6.05373 34.1002 5.5963 34.379 5.23846C34.7464 4.76584 34.9898 4.45358 35.2711 4.3177C35.8878 4.01978 36.2848 4.09236 36.3212 4.09911C36.3904 4.11679 36.4624 4.12067 36.5331 4.11054C36.6039 4.1004 36.6719 4.07645 36.7334 4.04005C36.7948 4.00365 36.8485 3.95551 36.8914 3.89838C36.9342 3.84125 36.9654 3.77625 36.9831 3.70709C37.0007 3.63793 37.0046 3.56597 36.9945 3.49531C36.9843 3.42465 36.9604 3.35668 36.9239 3.29527C36.8875 3.23387 36.8393 3.18024 36.7821 3.13744C36.7249 3.09465 36.6599 3.06352 36.5906 3.04584C36.5121 3.02474 35.7965 2.85595 34.798 3.3387C34.286 3.58514 33.9642 3.99868 33.5198 4.57173C33.0937 5.13384 32.6336 5.66936 32.1419 6.17526C31.7135 6.09087 31.2727 6.09087 30.8443 6.17526C30.3539 5.67128 29.8949 5.13774 29.4698 4.57764C29.0246 4.00459 28.7028 3.59105 28.1917 3.34461C27.1923 2.86186 26.4767 3.03065 26.399 3.05175C26.2625 3.08826 26.1458 3.17698 26.0742 3.29874C26.0026 3.42049 25.9818 3.56551 26.0163 3.70245C26.0532 3.83911 26.1414 3.95633 26.2625 4.02973C26.3837 4.10313 26.5285 4.12707 26.6668 4.09658V4.09658ZM33.84 9.54859C33.84 10.0146 33.7017 10.4702 33.4425 10.8577C33.1833 11.2452 32.8149 11.5472 32.3839 11.7256C31.9529 11.9039 31.4787 11.9506 31.0212 11.8597C30.5636 11.7687 30.1433 11.5443 29.8135 11.2148C29.4836 10.8852 29.259 10.4654 29.168 10.0083C29.0769 9.5512 29.1237 9.07742 29.3022 8.64685C29.4807 8.21629 29.783 7.84827 30.1709 7.58936C30.5588 7.33044 31.0148 7.19224 31.4813 7.19224C32.1067 7.19269 32.7064 7.44109 33.1486 7.88289C33.5909 8.3247 33.8395 8.92378 33.84 9.54859V9.54859Z" fill="#D0060E"/>
<path d="M51.0798 12.258C51.0091 12.3639 50.984 12.4933 51.0101 12.6175C51.0361 12.7417 51.1111 12.8506 51.2186 12.9203C51.3261 12.9899 51.4572 13.0146 51.5832 12.989C51.7092 12.9633 51.8196 12.8893 51.8903 12.7833C51.8978 12.7715 52.7023 11.6042 54.9999 11.6042C57.2531 11.6042 58.0719 12.7307 58.111 12.7863C58.1821 12.892 58.2928 12.9655 58.4188 12.9907C58.5449 13.0159 58.6759 12.9907 58.7831 12.9206C58.8903 12.8506 58.9648 12.7414 58.9904 12.6171C59.0159 12.4928 58.9903 12.3636 58.9193 12.258C58.8862 12.209 58.2871 11.3385 56.8174 10.8985V5.10064C58.2871 4.66059 58.8892 3.78717 58.9193 3.74116C58.9899 3.63518 59.015 3.50586 58.989 3.38165C58.9629 3.25745 58.8879 3.14853 58.7804 3.07886C58.673 3.00919 58.5418 2.98447 58.4158 3.01015C58.2899 3.03582 58.1794 3.10979 58.1088 3.21577C58.1012 3.22764 57.2967 4.39493 54.9999 4.39493C52.7422 4.39493 51.9264 3.26772 51.888 3.21206C51.8147 3.11144 51.7047 3.04276 51.5811 3.02046C51.4575 2.99817 51.33 3.024 51.2253 3.09252C51.1206 3.16105 51.047 3.26692 51.0198 3.38789C50.9927 3.50886 51.0142 3.63549 51.0798 3.74116C51.1144 3.79236 51.7706 4.73777 53.3871 5.15481V10.8443C51.7706 11.2613 51.1144 12.2068 51.0798 12.258ZM54.3572 5.31881C54.5612 5.33736 54.7726 5.35072 54.9999 5.35072C55.2835 5.35046 55.5667 5.33261 55.848 5.29729V10.7018C55.5667 10.6665 55.2835 10.6487 54.9999 10.6484C54.7741 10.6484 54.5612 10.6618 54.3572 10.6803V5.31881Z" fill="#D0060E"/>
<path d="M73.8647 10.9173L73.877 10.9288L73.9052 10.9474L73.9423 10.9721C75.0773 11.6807 76.3854 12.0609 77.7222 12.0709C79.1893 12.0709 80.9312 11.5829 82.6811 9.96791C82.7919 9.86569 82.8576 9.72351 82.8639 9.57265C82.8702 9.42179 82.8165 9.27461 82.7146 9.16348C82.6127 9.05235 82.471 8.98638 82.3206 8.98008C82.1703 8.97378 82.0235 9.02767 81.9128 9.12989C79.8439 11.0384 77.8359 11.1224 76.4384 10.8095C76.7663 10.5264 76.9982 10.1479 77.1018 9.72656C77.2053 9.30521 77.1755 8.86195 77.0163 8.45841C76.8572 8.05488 76.5766 7.71112 76.2137 7.47495C75.8508 7.23877 75.4236 7.12191 74.9914 7.14061C74.5593 7.15932 74.1437 7.31265 73.8024 7.5793C73.4611 7.84595 73.2111 8.21267 73.0872 8.62845C72.9633 9.04424 72.9715 9.48843 73.1109 9.89928C73.2502 10.3101 73.5137 10.6672 73.8647 10.9208V10.9173ZM75.0806 8.27773C75.2073 8.27385 75.3334 8.29552 75.4516 8.34147C75.5697 8.38741 75.6774 8.45669 75.7684 8.54519C75.8593 8.6337 75.9316 8.73962 75.981 8.85668C76.0304 8.97375 76.0558 9.09957 76.0558 9.22668C76.0558 9.3538 76.0304 9.47962 75.981 9.59668C75.9316 9.71375 75.8593 9.81967 75.7684 9.90818C75.6774 9.99668 75.5697 10.066 75.4516 10.1119C75.3334 10.1578 75.2073 10.1795 75.0806 10.1756C74.8946 10.176 74.7126 10.1205 74.5581 10.0165L74.5467 10.0086C74.3802 9.89408 74.2547 9.72917 74.1884 9.53794C74.122 9.34672 74.1184 9.13922 74.1781 8.9458C74.2378 8.75238 74.3576 8.5832 74.52 8.46299C74.6824 8.34278 74.8788 8.27786 75.0806 8.27773V8.27773Z" fill="#D0060E"/>
<path d="M73.5688 7.09175C73.7112 7.09202 73.8484 7.03843 73.953 6.94169C76.0218 5.03497 78.0297 4.95111 79.4271 5.26448C79.099 5.5471 78.8668 5.92515 78.763 6.34606C78.6593 6.76697 78.689 7.20982 78.848 7.61303C79.0071 8.01625 79.2876 8.35978 79.6506 8.59586C80.0135 8.83195 80.4409 8.94886 80.8733 8.93033C81.3056 8.9118 81.7215 8.75875 82.063 8.49247C82.4045 8.22619 82.6547 7.85991 82.7788 7.44456C82.9029 7.02921 82.8948 6.58544 82.7555 6.17495C82.6162 5.76446 82.3527 5.40765 82.0016 5.15414C81.9977 5.14958 81.9932 5.14544 81.9884 5.14178L81.9593 5.12236L81.9303 5.10206C81.3963 4.74897 77.3117 2.29848 73.1847 6.10044C73.1007 6.17806 73.0421 6.27922 73.0164 6.39073C72.9907 6.50224 72.9991 6.61893 73.0406 6.72556C73.082 6.8322 73.1546 6.92385 73.2489 6.98854C73.3431 7.05323 73.4546 7.08797 73.5688 7.08822V7.09175ZM80.7849 7.79265C80.6582 7.79652 80.5321 7.77488 80.414 7.729C80.2958 7.68312 80.1881 7.61393 80.0972 7.52556C80.0062 7.43718 79.9339 7.3314 79.8845 7.21451C79.8352 7.09761 79.8097 6.97196 79.8097 6.84503C79.8097 6.71809 79.8352 6.59245 79.8845 6.47555C79.9339 6.35865 80.0062 6.25287 80.0972 6.1645C80.1881 6.07612 80.2958 6.00694 80.414 5.96106C80.5321 5.91518 80.6582 5.89353 80.7849 5.89741C80.9712 5.89698 81.1535 5.9523 81.3082 6.0563L81.3188 6.06336C81.4856 6.17755 81.6116 6.34228 81.6781 6.53341C81.7447 6.72453 81.7484 6.932 81.6887 7.12538C81.629 7.31877 81.509 7.4879 81.3464 7.60799C81.1837 7.72807 80.9869 7.79279 80.7849 7.79265V7.79265Z" fill="#D0060E"/>
<path d="M97.0001 8.51579C96.9995 8.75872 97.0606 8.9989 97.1791 9.21995C97.2976 9.441 97.4707 9.63772 97.6867 9.79673C97.9026 9.95573 98.1564 10.0733 98.4306 10.1413C98.7048 10.2094 98.993 10.2264 99.2757 10.1911C99.5583 10.1559 99.8287 10.0692 100.068 9.93707C100.308 9.80492 100.511 9.63038 100.665 9.42534C100.818 9.2203 100.917 8.98957 100.956 8.7489C100.995 8.50822 100.972 8.26325 100.89 8.03067V8.02548C100.825 7.84518 100.725 7.67543 100.594 7.52328C100.349 6.93639 100.304 5.97582 100.342 5.40305C100.342 5.39413 100.342 5.38448 100.342 5.37556C100.331 5.17854 100.366 4.98158 100.447 4.79673C100.528 4.61188 100.653 4.44301 100.813 4.30046C100.974 4.15791 101.166 4.04466 101.38 3.96763C101.594 3.89061 101.823 3.85144 102.055 3.8525C102.287 3.85356 102.516 3.89484 102.729 3.97381C102.942 4.05279 103.133 4.1678 103.291 4.31181C103.45 4.45582 103.572 4.62581 103.651 4.8114C103.73 4.99698 103.763 5.19426 103.749 5.39116C103.764 5.83449 103.711 6.27758 103.59 6.70906C103.48 7.10205 103.233 7.38881 102.947 7.72089C102.763 7.9278 102.593 8.1436 102.438 8.36721C102.156 8.78546 102.012 9.30029 101.996 9.94067C101.979 10.581 102.218 11.1568 102.649 11.5327C102.824 11.6842 103.034 11.8038 103.266 11.8842C103.497 11.9645 103.745 12.0039 103.995 12C105.233 12 106 10.9599 106 9.99415C105.994 9.87043 105.932 9.7534 105.827 9.66758C105.723 9.58177 105.583 9.53385 105.437 9.53385C105.291 9.53385 105.151 9.58177 105.047 9.66758C104.942 9.7534 104.88 9.87043 104.874 9.99415C104.874 10.4221 104.561 11.0409 103.995 11.0409C103.895 11.0448 103.795 11.0308 103.702 10.9998C103.609 10.9689 103.524 10.9216 103.454 10.8611C103.235 10.6717 103.11 10.3344 103.121 9.95924C103.133 9.4823 103.229 9.11605 103.415 8.83969C103.548 8.64739 103.694 8.46184 103.852 8.284C104.18 7.90364 104.518 7.50991 104.681 6.92896C104.824 6.41977 104.888 5.89671 104.871 5.37333C104.86 4.74205 104.558 4.13959 104.03 3.69573C103.502 3.25186 102.79 3.00211 102.048 3.00025C101.306 2.9984 100.592 3.24461 100.061 3.68583C99.5302 4.12706 99.2242 4.728 99.2092 5.35922C99.1806 5.85505 99.2008 6.35204 99.2695 6.84501C98.9874 6.80846 98.6993 6.82441 98.4251 6.89175C98.151 6.9591 97.8972 7.07623 97.6815 7.23507C97.4657 7.39392 97.2931 7.59069 97.1754 7.8118C97.0578 8.03291 96.9979 8.2731 97.0001 8.51579V8.51579ZM99.8224 8.34343C99.8644 8.49135 99.8511 8.64671 99.7844 8.7879C99.7176 8.92908 99.6008 9.04907 99.4502 9.13117C99.2996 9.21326 99.1226 9.25337 98.9439 9.24592C98.7652 9.23847 98.5936 9.18383 98.4532 9.0896C98.3127 8.99537 98.2102 8.86624 98.1601 8.72018C98.1099 8.57412 98.1145 8.4184 98.1733 8.27469C98.2321 8.13097 98.3421 8.0064 98.488 7.91833C98.6339 7.83026 98.8084 7.78305 98.9873 7.78329C99.1061 7.78341 99.2236 7.80461 99.3322 7.84554C99.4408 7.88648 99.5381 7.94625 99.618 8.02102C99.6761 8.13393 99.7456 8.24231 99.8259 8.34492L99.8224 8.34343Z" fill="#D0060E"/>
<path d="M120.522 5.3642C120.661 5.3642 120.794 5.31222 120.892 5.21968C120.991 5.12714 121.046 5.00163 121.046 4.87076C121.046 4.38574 121.406 3.99113 121.849 3.99113C122.291 3.99113 122.651 4.38574 122.651 4.87076V9.69796C122.656 9.82557 122.714 9.94628 122.812 10.0348C122.91 10.1233 123.04 10.1727 123.176 10.1727C123.311 10.1727 123.442 10.1233 123.54 10.0348C123.637 9.94628 123.695 9.82557 123.7 9.69796V4.87076C123.7 4.63767 123.799 4.41413 123.974 4.24931C124.149 4.08449 124.386 3.9919 124.634 3.9919C124.882 3.9919 125.119 4.08449 125.294 4.24931C125.469 4.41413 125.568 4.63767 125.568 4.87076V9.69796C125.573 9.82557 125.631 9.94628 125.728 10.0348C125.826 10.1233 125.957 10.1727 126.092 10.1727C126.228 10.1727 126.358 10.1233 126.456 10.0348C126.554 9.94628 126.611 9.82557 126.617 9.69796V4.87076C126.617 4.63767 126.715 4.41413 126.89 4.24931C127.065 4.08449 127.303 3.9919 127.55 3.9919C127.798 3.9919 128.036 4.08449 128.211 4.24931C128.386 4.41413 128.484 4.63767 128.484 4.87076V9.69796C128.488 9.84182 128.512 9.98458 128.556 10.1225C128.105 10.4788 127.622 10.7963 127.111 11.071C126.988 11.1326 126.896 11.2376 126.856 11.3628C126.815 11.488 126.829 11.6233 126.895 11.7388C126.96 11.8543 127.072 11.9407 127.205 11.9788C127.338 12.017 127.481 12.0038 127.604 11.9422C128.136 11.6622 128.641 11.3383 129.112 10.9745C129.484 11.3032 130.05 11.5629 130.889 11.6089H130.919C131.054 11.6064 131.183 11.555 131.279 11.4656C131.374 11.3762 131.43 11.2555 131.434 11.1286C131.437 11.0017 131.389 10.8783 131.299 10.784C131.209 10.6897 131.083 10.6317 130.949 10.622C130.435 10.5944 130.11 10.4688 129.9 10.3155C130.557 9.70792 131.21 8.94017 131.639 8.0276C132.442 6.31892 131.706 5.39792 131.352 5.0807C131.105 4.86753 130.811 4.70879 130.491 4.61601C130.171 4.52323 129.833 4.49875 129.502 4.54435C129.438 4.2013 129.274 3.88181 129.028 3.62216C128.781 3.3625 128.463 3.17308 128.108 3.07541C127.753 2.97774 127.376 2.97572 127.019 3.0696C126.663 3.16347 126.342 3.34948 126.093 3.60649C125.909 3.41706 125.686 3.26542 125.437 3.16109C125.189 3.05676 124.92 3.00201 124.648 3.00029C124.375 2.99856 124.106 3.04989 123.855 3.15105C123.605 3.25221 123.38 3.40102 123.194 3.5881C123.027 3.40643 122.821 3.26036 122.59 3.15967C122.358 3.05898 122.107 3.00599 121.852 3.00424C120.831 3.00424 120 3.84172 120 4.87076C120 5.00123 120.055 5.12639 120.153 5.21887C120.25 5.31134 120.383 5.3636 120.522 5.3642ZM130.629 5.79789C131.043 6.16874 131.061 6.81926 130.68 7.62993C130.391 8.2218 130.004 8.76691 129.533 9.24512V5.54427C129.926 5.46151 130.353 5.5504 130.629 5.79789V5.79789Z" fill="#D0060E"/>
<path d="M158.35 10.231H146.558C146.408 10.2378 146.266 10.3111 146.162 10.4355C146.058 10.56 146 10.7259 146 10.8986C146 11.0712 146.058 11.2372 146.162 11.3616C146.266 11.4861 146.408 11.5594 146.558 11.5662H158.35C158.5 11.5594 158.642 11.4861 158.745 11.3616C158.849 11.2372 158.908 11.0712 158.908 10.8986C158.908 10.7259 158.849 10.56 158.745 10.4355C158.642 10.3111 158.5 10.2378 158.35 10.231Z" fill="#D0060E"/>
<path d="M158.348 7.45054H156.115V7.10674C156.1 6.27833 155.708 5.48825 155.023 4.90701C154.338 4.32577 153.415 4 152.454 4C151.493 4 150.57 4.32577 149.885 4.90701C149.2 5.48825 148.808 6.27833 148.793 7.10674V7.45054H146.558C146.408 7.45563 146.266 7.51055 146.162 7.60379C146.058 7.69704 146 7.82137 146 7.95071C146 8.08005 146.058 8.20438 146.162 8.29762C146.266 8.39086 146.408 8.44579 146.558 8.45088H149.373C149.527 8.45068 149.675 8.39785 149.783 8.304C149.892 8.21015 149.953 8.08294 149.953 7.95032V7.10674C149.965 6.54215 150.234 6.0043 150.702 5.6088C151.17 5.21331 151.799 4.99175 152.454 4.99175C153.109 4.99175 153.738 5.21331 154.206 5.6088C154.673 6.0043 154.942 6.54215 154.954 7.10674V7.95032C154.954 8.08308 155.016 8.2104 155.125 8.30427C155.233 8.39814 155.381 8.45088 155.535 8.45088H158.35C158.5 8.44579 158.641 8.39086 158.745 8.29762C158.849 8.20438 158.908 8.08005 158.908 7.95071C158.908 7.82137 158.849 7.69704 158.745 7.60379C158.641 7.51055 158.5 7.45563 158.35 7.45054H158.348Z" fill="#D0060E"/>
<path d="M184.804 9.97964L183.415 8.87333C183.343 8.81608 183.257 8.78107 183.167 8.77222C183.077 8.76338 182.987 8.78107 182.906 8.82329C182.825 8.86551 182.757 8.93059 182.71 9.0112C182.662 9.0918 182.637 9.18473 182.637 9.27951V9.79394H182.136C182.04 9.75344 181.957 9.68345 181.9 9.59309C181.842 9.50274 181.811 9.39621 181.812 9.28741V4.92539C181.813 4.53768 181.702 4.15883 181.494 3.83861C181.286 3.5184 180.99 3.27179 180.646 3.13118C180.302 2.99057 179.926 2.96253 179.567 3.05075C179.207 3.13896 178.882 3.33931 178.633 3.62548C178.463 3.43012 178.257 3.27372 178.027 3.16613C177.797 3.05853 177.549 3.00207 177.297 3.00029C177.046 2.99851 176.796 3.05145 176.565 3.15578C176.334 3.26011 176.126 3.41357 175.954 3.60651C175.8 3.41813 175.609 3.26657 175.395 3.16202C175.181 3.05747 174.948 3.00237 174.711 3.00041C173.768 3.00041 173 3.86412 173 4.92539C173.005 5.05699 173.058 5.18148 173.149 5.27276C173.239 5.36403 173.359 5.41501 173.485 5.41501C173.61 5.41501 173.731 5.36403 173.821 5.27276C173.911 5.18148 173.965 5.05699 173.97 4.92539C173.97 4.42518 174.302 4.019 174.711 4.019C175.121 4.019 175.453 4.42518 175.453 4.92539V9.90378C175.453 10.0388 175.504 10.1682 175.595 10.2636C175.686 10.3591 175.809 10.4127 175.937 10.4127C176.066 10.4127 176.189 10.3591 176.28 10.2636C176.371 10.1682 176.422 10.0388 176.422 9.90378V4.92539C176.422 4.68437 176.513 4.45322 176.675 4.2828C176.837 4.11238 177.057 4.01664 177.287 4.01664C177.516 4.01664 177.736 4.11238 177.899 4.2828C178.061 4.45322 178.152 4.68437 178.152 4.92539V9.90378C178.152 10.0388 178.203 10.1682 178.294 10.2636C178.385 10.3591 178.508 10.4127 178.636 10.4127C178.765 10.4127 178.888 10.3591 178.979 10.2636C179.07 10.1682 179.121 10.0388 179.121 9.90378V4.92539C179.121 4.68437 179.212 4.45322 179.374 4.2828C179.536 4.11238 179.756 4.01664 179.986 4.01664C180.215 4.01664 180.435 4.11238 180.598 4.2828C180.76 4.45322 180.851 4.68437 180.851 4.92539V9.28741C180.848 9.63302 180.955 9.9697 181.156 10.2435C181.357 10.5173 181.639 10.7124 181.958 10.7975C181.996 10.807 182.036 10.8117 182.075 10.8117V10.8117H182.642V11.4913C182.642 11.586 182.667 11.6787 182.714 11.7592C182.762 11.8396 182.83 11.9045 182.911 11.9465C182.977 11.982 183.051 12.0004 183.126 12.0002C183.232 12.0003 183.335 11.9639 183.419 11.8967L184.808 10.7904C184.868 10.7429 184.916 10.6815 184.949 10.6111C184.983 10.5407 185 10.4632 185 10.3846C185 10.3061 184.983 10.2285 184.949 10.1582C184.916 10.0878 184.868 10.0264 184.808 9.97885L184.804 9.97964Z" fill="#D0060E"/>
<path d="M208.442 3.00063H204.958C204.883 2.99798 204.808 3.00895 204.738 3.03289C204.668 3.05684 204.604 3.09327 204.549 3.13998C204.495 3.18669 204.452 3.24273 204.423 3.30475C204.393 3.36676 204.378 3.43348 204.378 3.50088C204.378 3.56828 204.393 3.63499 204.423 3.69701C204.452 3.75903 204.495 3.81507 204.549 3.86179C204.604 3.9085 204.668 3.94492 204.738 3.96886C204.808 3.99281 204.883 4.00379 204.958 4.00114H207.131L203.478 7.27818L201.938 5.89735C201.833 5.80358 201.692 5.7509 201.544 5.7509C201.396 5.7509 201.254 5.80358 201.149 5.89735C201.045 5.99112 200.986 6.1183 200.986 6.25091C200.986 6.38351 201.045 6.51068 201.149 6.60445L202.689 7.98529L199.163 11.1467C199.112 11.1931 199.07 11.2482 199.042 11.3089C199.014 11.3696 199 11.4346 199 11.5002C199 11.5659 199.014 11.6309 199.042 11.6916C199.07 11.7522 199.112 11.8074 199.163 11.8538C199.215 11.9002 199.277 11.9371 199.344 11.9622C199.412 11.9873 199.484 12.0002 199.558 12.0002C199.631 12.0002 199.703 11.9873 199.771 11.9622C199.838 11.9371 199.9 11.9002 199.952 11.8538L203.478 8.69161L204.825 9.90092C204.93 9.99468 205.071 10.0474 205.219 10.0474C205.367 10.0474 205.509 9.99468 205.613 9.90092C205.718 9.80715 205.777 9.67997 205.777 9.54736C205.777 9.41475 205.718 9.28758 205.613 9.19381L204.265 7.98529L207.884 4.73929V6.75038C207.89 6.87964 207.951 7.00192 208.055 7.09158C208.159 7.18123 208.298 7.23131 208.442 7.23131C208.586 7.23131 208.725 7.18123 208.829 7.09158C208.933 7.00192 208.994 6.87964 209 6.75038V3.5036C209 3.43766 208.986 3.37231 208.958 3.3113C208.93 3.25029 208.889 3.19483 208.837 3.14809C208.786 3.10135 208.724 3.06426 208.656 3.03896C208.588 3.01365 208.515 3.00063 208.442 3.00063V3.00063Z" fill="#D0060E"/>
<path d="M234.656 6.44483C234.229 6.44528 233.81 6.5486 233.444 6.74364C233.079 6.93869 232.781 7.21804 232.582 7.55152C232.308 6.85641 232.168 6.06611 232.168 5.15938C232.167 4.68232 231.987 4.21894 231.656 3.84165C231.325 3.46436 230.861 3.19442 230.337 3.074C229.814 2.95359 229.259 2.9895 228.761 3.1761C228.263 3.36271 227.849 3.6895 227.584 4.10542C227.32 3.68841 226.906 3.36051 226.408 3.17314C225.909 2.98577 225.354 2.94953 224.83 3.07009C224.305 3.19065 223.841 3.4612 223.51 3.83931C223.179 4.21743 223 4.68172 223 5.15938C223 5.27635 223.053 5.38853 223.147 5.47124C223.24 5.55395 223.368 5.60042 223.5 5.60042C223.633 5.60042 223.76 5.55395 223.854 5.47124C223.948 5.38853 224.001 5.27635 224.001 5.15938C224.004 4.82119 224.159 4.49782 224.432 4.26041C224.705 4.023 225.074 3.89101 225.458 3.89346C225.842 3.89591 226.209 4.03261 226.478 4.27348C226.747 4.51436 226.897 4.83968 226.894 5.17788L227.084 9.2328C227.091 9.34552 227.147 9.45156 227.24 9.52913C227.333 9.60671 227.456 9.64993 227.584 9.64993C227.712 9.64993 227.835 9.60671 227.929 9.52913C228.022 9.45156 228.077 9.34552 228.085 9.2328L228.274 5.15938C228.274 4.82119 228.427 4.49684 228.698 4.2577C228.969 4.01856 229.337 3.88422 229.721 3.88422C230.105 3.88422 230.473 4.01856 230.744 4.2577C231.015 4.49684 231.168 4.82119 231.168 5.15938C231.168 6.78245 231.588 8.1487 232.417 9.2239C232.073 9.8238 231.549 10.3297 230.903 10.6874C230.222 11.0431 229.423 11.1846 228.639 11.0887C228.572 11.0787 228.505 11.0805 228.44 11.094C228.374 11.1075 228.313 11.1324 228.259 11.1673C228.204 11.2021 228.159 11.2462 228.124 11.2969C228.09 11.3476 228.068 11.4039 228.058 11.4624C228.049 11.5209 228.053 11.5805 228.07 11.6375C228.088 11.6946 228.118 11.748 228.159 11.7946C228.2 11.8412 228.252 11.88 228.31 11.9088C228.369 11.9375 228.434 11.9556 228.5 11.9619C228.706 11.9877 228.914 12.0006 229.122 12.0002C229.929 12.0004 230.722 11.8087 231.417 11.4455C232.081 11.0841 232.643 10.5939 233.059 10.0121C233.338 10.242 233.676 10.4084 234.045 10.4966C234.413 10.5849 234.8 10.5925 235.173 10.5186C235.545 10.4448 235.892 10.2918 236.181 10.0729C236.471 9.85414 236.696 9.57615 236.836 9.2632C236.977 8.95025 237.028 8.61183 236.986 8.27744C236.943 7.94304 236.809 7.62281 236.594 7.34465C236.38 7.06649 236.091 6.83883 235.754 6.68152C235.416 6.52421 235.04 6.44201 234.658 6.44209L234.656 6.44483ZM234.656 9.69233C234.408 9.69157 234.164 9.62987 233.953 9.51412C233.742 9.39837 233.572 9.23315 233.461 9.03694C233.449 9.00131 233.431 8.96725 233.408 8.93558C233.347 8.80008 233.315 8.65555 233.314 8.50961C233.314 8.27569 233.393 8.04703 233.54 7.85253C233.688 7.65804 233.897 7.50644 234.143 7.41693C234.388 7.32741 234.658 7.30399 234.918 7.34962C235.178 7.39526 235.417 7.5079 235.605 7.67331C235.793 7.83871 235.92 8.04945 235.972 8.27888C236.024 8.5083 235.997 8.74611 235.896 8.96222C235.794 9.17833 235.622 9.36304 235.402 9.493C235.181 9.62296 234.922 9.69233 234.656 9.69233Z" fill="#D0060E"/>
<path d="M262.574 4.46976L261.147 6.04832C261.13 6.06524 261.109 6.07463 261.086 6.07463C261.064 6.07463 261.042 6.06524 261.026 6.04832L259.536 4.4007C259.421 4.27368 259.285 4.17291 259.136 4.10415C258.986 4.03539 258.825 4 258.663 4C258.501 4 258.34 4.03539 258.19 4.10415C258.04 4.17291 257.904 4.27368 257.79 4.4007L256.317 6.02858C256.309 6.0375 256.3 6.04459 256.29 6.04944C256.279 6.05428 256.268 6.05677 256.257 6.05677C256.246 6.05677 256.235 6.05428 256.224 6.04944C256.214 6.04459 256.205 6.0375 256.197 6.02858L254.77 4.45003C254.538 4.1947 254.224 4.05137 253.897 4.05137C253.569 4.05137 253.255 4.1947 253.023 4.45003L251.168 6.50215C251.06 6.62133 251 6.78298 251 6.95153C251 7.12009 251.06 7.28175 251.168 7.40093C251.276 7.52012 251.422 7.58708 251.574 7.58708C251.727 7.58708 251.873 7.52012 251.981 7.40093L253.836 5.34881C253.843 5.33821 253.852 5.32959 253.863 5.32364C253.873 5.31769 253.885 5.3146 253.897 5.3146C253.908 5.3146 253.92 5.31769 253.931 5.32364C253.941 5.32959 253.95 5.33821 253.957 5.34881L255.384 6.92736C255.616 7.18311 255.93 7.32676 256.257 7.32676C256.584 7.32676 256.898 7.18311 257.13 6.92736L258.602 5.29948C258.619 5.28256 258.64 5.27317 258.663 5.27317C258.685 5.27317 258.707 5.28256 258.724 5.29948L260.213 6.9471C260.445 7.20291 260.759 7.34657 261.086 7.34657C261.414 7.34657 261.728 7.20291 261.959 6.9471L263.386 5.36855C263.494 5.24936 263.555 5.08771 263.555 4.91915C263.555 4.7506 263.494 4.58895 263.386 4.46976C263.279 4.35058 263.133 4.28361 262.98 4.28361C262.828 4.28361 262.682 4.35058 262.574 4.46976V4.46976Z" fill="#D0060E"/>
<path d="M262.574 8.95341L261.147 10.532C261.13 10.5489 261.109 10.5583 261.086 10.5583C261.064 10.5583 261.042 10.5489 261.026 10.532L259.536 8.88435C259.421 8.75733 259.285 8.65655 259.136 8.58779C258.986 8.51904 258.825 8.48364 258.663 8.48364C258.501 8.48364 258.34 8.51904 258.19 8.58779C258.04 8.65655 257.904 8.75733 257.79 8.88435L256.317 10.5122C256.309 10.5212 256.3 10.5282 256.29 10.5331C256.279 10.5379 256.268 10.5404 256.257 10.5404C256.246 10.5404 256.235 10.5379 256.224 10.5331C256.214 10.5282 256.205 10.5212 256.197 10.5122L254.77 8.93368C254.538 8.67835 254.224 8.53502 253.897 8.53502C253.569 8.53502 253.255 8.67835 253.023 8.93368L251.168 10.9858C251.115 11.0448 251.073 11.1149 251.044 11.192C251.015 11.2691 251 11.3517 251 11.4352C251 11.5186 251.015 11.6013 251.044 11.6784C251.073 11.7555 251.115 11.8256 251.168 11.8846C251.222 11.9436 251.285 11.9904 251.355 12.0224C251.424 12.0543 251.499 12.0707 251.574 12.0707C251.65 12.0707 251.725 12.0543 251.794 12.0224C251.864 11.9904 251.927 11.9436 251.981 11.8846L253.836 9.83247C253.843 9.82187 253.852 9.81324 253.863 9.8073C253.873 9.80135 253.885 9.79824 253.897 9.79824C253.908 9.79824 253.92 9.80135 253.931 9.8073C253.941 9.81324 253.95 9.82187 253.957 9.83247L255.384 11.411C255.616 11.6668 255.93 11.8104 256.257 11.8104C256.584 11.8104 256.898 11.6668 257.13 11.411L258.602 9.78314C258.619 9.76622 258.64 9.75681 258.663 9.75681C258.685 9.75681 258.707 9.76622 258.724 9.78314L260.213 11.4307C260.445 11.6866 260.759 11.8302 261.086 11.8302C261.414 11.8302 261.728 11.6866 261.959 11.4307L263.386 9.85219C263.494 9.73301 263.555 9.57136 263.555 9.40281C263.555 9.23425 263.494 9.07259 263.386 8.95341C263.279 8.83422 263.133 8.76726 262.98 8.76726C262.828 8.76726 262.682 8.83422 262.574 8.95341V8.95341Z" fill="#D0060E"/>
<path d="M286.476 7.14946H284.459C284.556 5.04409 285.778 4.0455 285.836 3.99999C285.948 3.91334 286.022 3.7832 286.044 3.6382C286.065 3.49319 286.031 3.34521 285.949 3.22679C285.867 3.10838 285.745 3.02923 285.608 3.00677C285.471 2.98431 285.331 3.02036 285.22 3.10701C285.148 3.16282 283.519 4.45764 283.417 7.14946H281.587C281.483 4.45764 279.856 3.16282 279.784 3.10701C279.672 3.0207 279.532 2.98507 279.395 3.00793C279.259 3.0308 279.136 3.1103 279.055 3.22894C278.973 3.34759 278.94 3.49565 278.961 3.64058C278.983 3.7855 279.058 3.9154 279.17 4.00171C279.183 4.01202 280.444 5.01489 280.547 7.14946H278.522C278.383 7.14946 278.251 7.20772 278.153 7.31142C278.055 7.41512 278 7.55577 278 7.70242C278 7.84908 278.055 7.98972 278.153 8.09342C278.251 8.19712 278.383 8.25538 278.522 8.25538H280.492C280.227 10.0267 279.196 10.9661 279.147 11.009C279.092 11.0542 279.045 11.1108 279.011 11.1754C278.977 11.2399 278.955 11.3111 278.947 11.3848C278.939 11.4585 278.945 11.5331 278.965 11.6042C278.985 11.6753 279.018 11.7414 279.062 11.7987C279.107 11.8559 279.162 11.9031 279.224 11.9374C279.286 11.9717 279.353 11.9925 279.423 11.9985C279.493 12.0044 279.563 11.9954 279.629 11.9721C279.696 11.9487 279.757 11.9115 279.81 11.8625C279.875 11.8058 281.256 10.5677 281.543 8.25624H283.464C283.749 10.5685 285.131 11.8067 285.196 11.8625C285.249 11.9095 285.31 11.9449 285.376 11.9667C285.442 11.9886 285.511 11.9964 285.579 11.9897C285.648 11.983 285.715 11.962 285.776 11.9279C285.836 11.8937 285.89 11.8471 285.934 11.7907C285.978 11.7343 286.011 11.6693 286.031 11.5994C286.051 11.5295 286.058 11.456 286.051 11.3834C286.044 11.3107 286.023 11.2402 285.99 11.1759C285.958 11.1117 285.913 11.0549 285.86 11.009C285.847 10.9979 284.785 10.0499 284.515 8.25538H286.478C286.617 8.25538 286.749 8.19712 286.847 8.09342C286.945 7.98972 287 7.84908 287 7.70242C287 7.55577 286.945 7.41512 286.847 7.31142C286.749 7.20772 286.617 7.14946 286.478 7.14946H286.476Z" fill="#D0060E"/>
<line x1="18.5" y1="15" x2="18.5" y2="2.18557e-08" stroke="#D0060E"/>
<line x1="43.5" y1="15" x2="43.5" y2="2.18557e-08" stroke="#D0060E"/>
<line x1="65.5" y1="15" x2="65.5" y2="2.18557e-08" stroke="#D0060E"/>
<line x1="89.5" y1="15" x2="89.5" y2="2.18557e-08" stroke="#D0060E"/>
<line x1="112.5" y1="15" x2="112.5" y2="2.18557e-08" stroke="#D0060E"/>
<line x1="138.5" y1="15" x2="138.5" y2="2.18557e-08" stroke="#D0060E"/>
<line x1="165.5" y1="15" x2="165.5" y2="2.18557e-08" stroke="#D0060E"/>
<line x1="191.5" y1="15" x2="191.5" y2="2.18557e-08" stroke="#D0060E"/>
<line x1="215.5" y1="15" x2="215.5" y2="2.18557e-08" stroke="#D0060E"/>
<line x1="243.5" y1="15" x2="243.5" y2="2.18557e-08" stroke="#D0060E"/>
<line x1="270.5" y1="15" x2="270.5" y2="2.18557e-08" stroke="#D0060E"/>
</svg>
